# xmcd CD database file
#
# Track frame offsets:
#	150
#	12930
#	28667
#	48775
#	67830
#	86825
#	103570
#	116555
#	135582
#	158695
#	174657
#	189385
#	204075
#	222955
#	237685
#	249230
#	262082
#	277822
#	294150
#
# Disc length: 4150 seconds
#
# Revision: 0
# Processed by: cddbd v1.4PL0 Copyright (c) Steve Scherf et al.
# Submitted via: CDex 1.51
#
DISCID=01103413
DTITLE=Various Artitsts - bizzl-FUN
DYEAR=1995
DGENRE=Salsa
TTITLE0=Aparecida - 17 Anos
TTITLE1=Jeremias - Abnegado De Rosas
TTITLE2=Los Sabrosos del Merenque - Que Siga El Party
TTITLE3=Fuera de Liga - Se Libero Mi Compadre
TTITLE4=Ze Carlos - Esse Nosso Mundo Magico
TTITLE5=Fernando Madureira - Rosas Pra Lemanja
TTITLE6=Nilze de Carvalho - Choro De Menina
TTITLE7=Yvonne - Sigueme
TTITLE8=Mimi Ibarra - Para Quererte Asi
TTITLE9=Bezerra Da Silva - Piranha
TTITLE10=Gilson Pena Branca - Gres Branco No Samba
TTITLE11=Jacyr De Portela - Saudades Da Jaqueira
TTITLE12=Timco - Gres Academicos Do Cubango
TTITLE13=Bezerra Da Silva - Bata Da Voco
TTITLE14=Vitora - Doida
TTITLE15=Banda Marrakeche - Xo Paturi
TTITLE16=Paulo Moraes - Homenagem Ao Pelo
TTITLE17=Banda Tropicalia - Americana
TTITLE18=Banda Marrakeche - Sou De Bahia
EXTD=YEAR: 1995
EXTT0=
EXTT1=
EXTT2=
EXTT3=
EXTT4=
EXTT5=
EXTT6=
EXTT7=
EXTT8=
EXTT9=
EXTT10=
EXTT11=
EXTT12=
EXTT13=
EXTT14=
EXTT15=
EXTT16=
EXTT17=
EXTT18=
PLAYORDER=
